# xmcd
#
# Track frame offsets:
#	150
#	15487
#	28175
#	43057
#	51977
#	69140
#	87245
#	100285
#	116165
#	130275
#	141900
#	159480
#
# Disc length: 2331 seconds
#
# Revision: 1
# Processed by: cddbd v1.4PL0 Copyright (c) Steve Scherf et al.
# Submitted via: audiograbber 1.80
#
DISCID=a309190c
DTITLE=Tex Robinson - Country Weihnacht
DYEAR=1900
DGENRE=
TTITLE0=Next Christmas
TTITLE1=Heut kumm i zruck
TTITLE2=Twinkle, twinkle lucky star
TTITLE3=What's important
TTITLE4=Weihnachtsimpressionen
TTITLE5=Angel of Christmas
TTITLE6=Santa Claus is coming to town
TTITLE7=Mein schönster Tag
TTITLE8=Mary's boy child
TTITLE9=Weihnachtsgefühl
TTITLE10=Driving home for Christmas
TTITLE11=Christmas in Dixie
EXTD=
EXTT0=
EXTT1=
EXTT2=
EXTT3=
EXTT4=
EXTT5=
EXTT6=
EXTT7=
EXTT8=
EXTT9=
EXTT10=
EXTT11=
PLAYORDER=
